<svg width="20" height="20" viewBox="0 0 20 20" fill="none" xmlns="http://www.w3.org/2000/svg">
<path fill-rule="evenodd" clip-rule="evenodd" d="M6.25003 2.50001C6.25003 2.03977 6.62313 1.66667 7.08336 1.66667H12.9167C13.3769 1.66667 13.75 2.03977 13.75 2.50001V9.16667H17.9167C18.2579 9.16667 18.5646 9.37461 18.6908 9.69153C18.8171 10.0085 18.7375 10.3703 18.4898 10.605L10.5732 18.105C10.2517 18.4095 9.74832 18.4095 9.42691 18.105L1.51024 10.605C1.26258 10.3703 1.18294 10.0085 1.30923 9.69153C1.43551 9.37461 1.74221 9.16667 2.08336 9.16667H6.25003V2.50001ZM7.9167 3.33334V10C7.9167 10.4602 7.5436 10.8333 7.08336 10.8333H4.17468L10 16.3521L15.8254 10.8333H12.9167C12.4565 10.8333 12.0834 10.4602 12.0834 10V3.33334H7.9167Z" fill="white"/>
<path d="M7.9167 10V3.33334H12.0834V10C12.0834 10.4602 12.4565 10.8333 12.9167 10.8333H15.8254L10 16.3521L4.17468 10.8333H7.08336C7.5436 10.8333 7.9167 10.4602 7.9167 10Z" fill="white"/>
</svg>