<svg width="18" height="22" viewBox="0 0 18 22" fill="none" xmlns="http://www.w3.org/2000/svg">
<path fill-rule="evenodd" clip-rule="evenodd" d="M8.46967 0.71967C8.76256 0.426777 9.23744 0.426777 9.53033 0.71967L13.2803 4.46967C13.5732 4.76256 13.5732 5.23744 13.2803 5.53033C12.9874 5.82322 12.5126 5.82322 12.2197 5.53033L9.75 3.06066V14.0469C9.75 14.4611 9.41421 14.7969 9 14.7969C8.58579 14.7969 8.25 14.4611 8.25 14.0469V3.06066L5.78033 5.53033C5.48744 5.82322 5.01256 5.82322 4.71967 5.53033C4.42678 5.23744 4.42678 4.76256 4.71967 4.46967L8.46967 0.71967ZM3.375 8.75C3.07663 8.75 2.79048 8.86853 2.5795 9.0795C2.36853 9.29048 2.25 9.57663 2.25 9.875V18.875C2.25 19.1734 2.36853 19.4595 2.5795 19.6705C2.79048 19.8815 3.07663 20 3.375 20H14.625C14.9234 20 15.2095 19.8815 15.4205 19.6705C15.6315 19.4595 15.75 19.1734 15.75 18.875V9.875C15.75 9.57663 15.6315 9.29048 15.4205 9.0795C15.2095 8.86853 14.9234 8.75 14.625 8.75H12.75C12.3358 8.75 12 8.41421 12 8C12 7.58579 12.3358 7.25 12.75 7.25H14.625C15.3212 7.25 15.9889 7.52656 16.4812 8.01884C16.9734 8.51113 17.25 9.17881 17.25 9.875V18.875C17.25 19.5712 16.9734 20.2389 16.4812 20.7312C15.9889 21.2234 15.3212 21.5 14.625 21.5H3.375C2.67881 21.5 2.01113 21.2234 1.51884 20.7312C1.02656 20.2389 0.75 19.5712 0.75 18.875V9.875C0.75 9.17881 1.02656 8.51113 1.51884 8.01884C2.01113 7.52656 2.67881 7.25 3.375 7.25H5.25C5.66421 7.25 6 7.58579 6 8C6 8.41421 5.66421 8.75 5.25 8.75H3.375Z" fill="#fff"/>
</svg>